<?xml version="1.0" encoding="UTF-8"?>
<svg id="Layer_3" data-name="Layer 3" xmlns="http://www.w3.org/2000/svg" xmlns:xlink="http://www.w3.org/1999/xlink" viewBox="0 0 1080 1080">
  <defs>
    <style>
      .cls-1 {
        fill: url(#linear-gradient);
        stroke-width: 0px;
      }

      .cls-2 {
        opacity: .96;
        stroke-width: 7px;
      }

      .cls-2, .cls-3, .cls-4, .cls-5, .cls-6 {
        fill: none;
        stroke: #4eace1;
        stroke-linecap: round;
        stroke-miterlimit: 10;
      }

      .cls-3 {
        stroke-width: 10px;
      }

      .cls-4 {
        stroke-width: 6px;
      }

      .cls-5 {
        stroke-width: 8px;
      }

      .cls-6 {
        stroke-width: 12px;
      }
    </style>
    <linearGradient id="linear-gradient" x1="281.42" y1="331.22" x2="791.19" y2="840.98" gradientUnits="userSpaceOnUse">
      <stop offset="0" stop-color="#7ccde8"/>
      <stop offset=".33" stop-color="#62bdde"/>
      <stop offset="1" stop-color="#339fcd"/>
    </linearGradient>
  </defs>
  <path class="cls-1" d="M800.63,403.17c-14.61,0-28.82,1.77-42.41,5.11-24.58-114.55-126.41-200.41-248.28-200.41-131.16,0-239.08,99.41-252.52,227.02-89.34,1.36-161.34,74.19-161.34,163.84,0,56.67,28.77,106.63,72.52,136.06,64.26-13.1,134.95-22.84,210.04-28.49,9.25-79.96,77.22-142.05,159.69-142.05s151.08,62.67,159.83,143.21c68.21,5.64,132.6,14.66,191.66,26.54,52.78-30.74,88.24-87.93,88.24-153.42,0-97.99-79.44-177.43-177.43-177.43ZM359.34,685.32l-127.96-41.59,131.65,27.78-3.69,13.81ZM394.55,616.78l-97.1-93.12,106.44,82.3-9.34,10.82ZM453.2,564.39l-48.95-125.33,61.96,119.43-13.01,5.9ZM531.19,546.16l7.15-134.34,7.15,134.34h-14.3ZM623.17,564.39l-13.01-5.9,61.96-119.43-48.95,125.33ZM681.18,616.78l-9.32-10.82,106.42-82.3-97.1,93.12ZM714.29,685.32l-3.69-13.81,131.65-27.78-127.96,41.59Z"/>
  <path class="cls-6" d="M26.22,789.51c135.8-30.5,318.21-52.39,523.92-51.96,201.3.42,369.74,22.48,503.64,52.56"/>
  <path class="cls-3" d="M213.2,795.29c96.56-11.7,205.94-19.64,325.99-19.54,118.28.1,226.14,7.98,321.55,19.54"/>
  <path class="cls-5" d="M325.12,820.16c67.03-5.06,139.18-8.09,215.85-8.01,74.34.08,144.39,3.09,209.63,8.01"/>
  <path class="cls-2" d="M417.94,845.92c38.51-1.61,78.54-2.51,119.99-2.52,41.55,0,81.68.9,120.28,2.52"/>
  <line class="cls-4" x1="484.11" y1="872.12" x2="593.15" y2="872.12"/>
</svg>